<?xml version="1.0" standalone="no"?>
<!DOCTYPE svg PUBLIC "-//W3C//DTD SVG 20010904//EN"
 "http://www.w3.org/TR/2001/REC-SVG-20010904/DTD/svg10.dtd">
<svg version="1.0" xmlns="http://www.w3.org/2000/svg"
 width="704.000000pt" height="1280.000000pt" viewBox="0 0 704.000000 1280.000000"
 preserveAspectRatio="xMidYMid meet">
<metadata>
Created by potrace 1.15, written by Peter Selinger 2001-2017
</metadata>
<g transform="translate(0.000000,1280.000000) scale(0.100000,-0.100000)"
fill="#000000" stroke="none">
<path d="M4483 12790 c-138 -25 -260 -99 -340 -205 -101 -133 -133 -264 -133
-536 l0 -169 -24 0 c-56 0 -48 -93 24 -280 26 -67 44 -95 82 -133 89 -87 126
-207 94 -305 -17 -49 -19 -51 -69 -62 -76 -18 -208 -82 -254 -123 -21 -20 -48
-54 -59 -76 -15 -33 -27 -43 -64 -55 -25 -8 -173 -56 -330 -106 -157 -50 -349
-112 -426 -137 l-142 -45 -117 -377 c-579 -1852 -916 -3010 -976 -3355 -9 -55
-9 -70 2 -76 12 -8 6 -40 -17 -97 -3 -7 1 -13 10 -13 9 0 16 -3 16 -6 0 -3
-38 -44 -85 -91 -95 -95 -149 -188 -160 -275 -9 -71 14 -175 60 -275 33 -73
35 -83 23 -106 -7 -13 -77 -91 -155 -172 l-142 -148 -168 22 c-92 12 -174 23
-182 24 -8 1 -26 -28 -46 -73 -18 -41 -186 -430 -373 -865 -187 -434 -383
-891 -436 -1014 -53 -123 -95 -225 -94 -226 2 -2 43 -20 93 -40 50 -21 202
-84 339 -142 l248 -104 534 12 c293 6 539 9 547 6 8 -3 19 -35 26 -76 7 -39
17 -71 23 -71 5 0 168 36 361 80 l352 80 172 115 c95 63 176 115 181 115 4 0
36 -53 71 -118 160 -295 442 -730 769 -1187 63 -88 117 -167 119 -175 2 -8
-14 -215 -36 -460 -39 -439 -40 -450 -38 -855 2 -362 4 -415 19 -453 28 -70
58 -103 117 -131 52 -24 65 -26 191 -25 230 1 399 43 440 109 49 79 7 264 -81
360 -51 55 -60 88 -94 320 -21 149 -23 177 -12 229 l13 60 49 -89 c81 -145
217 -345 280 -413 134 -145 268 -151 376 -17 76 95 116 232 106 368 -12 175
-90 330 -388 778 l-98 147 40 31 c21 18 39 37 39 44 -1 7 -32 84 -70 172 -37
88 -67 161 -65 163 2 2 117 -22 256 -53 139 -31 258 -55 264 -53 7 2 117 117
245 256 157 171 235 249 241 241 6 -10 98 1 414 48 224 34 411 65 415 70 5 4
137 239 294 521 l286 513 -423 752 c-339 603 -427 752 -443 751 -10 -1 -42
-10 -70 -22 l-51 -21 -48 104 -48 104 52 57 c67 73 67 93 -3 243 -110 238
-133 386 -106 686 17 192 15 185 63 185 84 0 87 3 87 85 0 40 4 75 8 77 5 2 5
48 1 103 -56 729 -135 2076 -175 2963 l-7 152 -396 281 c-394 279 -396 280
-417 332 -38 96 -65 139 -125 200 -40 41 -57 67 -54 78 3 10 30 36 59 58 64
49 99 112 149 261 34 102 38 108 114 185 107 110 128 154 128 273 0 90 -1 95
-27 117 -28 24 -28 24 -18 102 16 119 13 299 -5 367 -34 128 -94 224 -208 332
-79 76 -177 132 -277 160 -68 18 -247 26 -317 14z m-1499 -4126 c16 -118 -2
-620 -59 -1668 -7 -137 -11 -254 -9 -261 3 -6 -7 -110 -20 -231 -33 -285 -81
-744 -101 -959 -25 -272 -17 -265 -92 -80 -36 88 -68 164 -73 168 -4 5 -67
-10 -140 -33 -72 -23 -137 -40 -143 -37 -7 3 -36 43 -65 90 -71 117 -164 230
-227 278 l-53 40 -7 104 c-4 58 -4 128 -1 157 9 66 80 284 92 281 5 -1 21 -4
36 -8 29 -7 29 -8 48 88 8 41 16 57 26 55 11 -2 94 174 295 622 l280 625 55
270 c102 501 141 623 158 499z m2316 -619 c14 -277 18 -319 99 -874 34 -227
61 -415 61 -417 0 -2 11 -4 24 -4 28 0 36 -16 36 -72 l0 -40 57 7 56 7 -6
-194 c-7 -214 -17 -266 -71 -373 -57 -113 -96 -351 -96 -583 0 -66 5 -132 10
-149 9 -25 6 -42 -25 -114 -20 -46 -59 -142 -86 -214 -69 -179 -66 -174 -91
-179 -43 -9 -211 -27 -214 -23 -2 2 16 101 41 220 104 502 169 958 205 1427
13 174 49 724 51 796 2 45 -7 71 -80 225 l-82 174 31 310 c16 171 36 364 42
430 l13 120 6 -120 c4 -66 12 -228 19 -360z m-3228 -2213 c68 -75 198 -268
198 -293 0 -9 -252 -89 -279 -89 -19 0 -21 4 -16 33 11 70 25 243 25 323 0 79
1 84 18 75 10 -6 34 -27 54 -49z m-388 -15 c12 -19 12 -19 -62 -182 -34 -75
-55 -110 -66 -109 -80 4 -78 3 -71 24 20 63 80 171 150 268 18 25 33 25 49 -1z
m246 -119 c-17 -222 -20 -238 -44 -233 -11 2 -66 12 -121 21 -55 8 -102 17
-104 19 -6 6 37 138 64 198 25 54 27 56 53 46 38 -15 82 -4 122 30 19 16 36
28 36 28 1 -1 -2 -50 -6 -109z m3828 -24 c3 -21 -24 -41 -70 -55 -37 -10 -35
-1 7 45 36 39 58 43 63 10z m-4330 -92 c-8 -20 -19 -32 -31 -32 -17 0 -15 4
10 33 15 19 29 33 30 32 2 -1 -3 -16 -9 -33z m4342 -151 c0 -84 8 -111 30
-111 14 0 21 -14 32 -62 8 -35 12 -66 9 -70 -3 -4 -43 -23 -88 -42 l-83 -35 0
55 c0 91 30 261 61 342 10 26 11 26 25 8 9 -12 14 -45 14 -85z m-119 38 c-18
-51 -40 -197 -45 -294 -5 -83 -7 -90 -31 -102 -24 -13 -25 -18 -25 -102 0 -98
-2 -101 -77 -101 -39 0 -39 -7 -14 163 17 109 27 143 69 237 58 127 122 244
129 236 3 -3 0 -19 -6 -37z m-1692 -1084 c-31 -603 -59 -1098 -61 -1101 -11
-11 -101 115 -144 202 -194 395 -133 993 187 1829 35 91 66 165 69 165 3 0
-20 -493 -51 -1095z m1992 953 c19 -45 35 -85 37 -88 1 -4 -15 -14 -38 -23
l-40 -15 -9 36 c-30 123 -30 126 -15 149 8 13 18 23 22 23 5 0 24 -37 43 -82z"/>
</g>
</svg>
